<?xml version="1.0" encoding="UTF-8" standalone="no"?>
<!-- Created with Inkscape (http://www.inkscape.org/) -->

<svg
   version="1.1"
   id="svg1"
   width="174.36391"
   height="184.01416"
   viewBox="0 0 174.36391 184.01416"
   sodipodi:docname="monospinner-coordinates.svg"
   inkscape:version="1.3.2 (1:1.3.2+202311252150+091e20ef0f)"
   xmlns:inkscape="http://www.inkscape.org/namespaces/inkscape"
   xmlns:sodipodi="http://sodipodi.sourceforge.net/DTD/sodipodi-0.dtd"
   xmlns="http://www.w3.org/2000/svg"
   xmlns:svg="http://www.w3.org/2000/svg"
   xmlns:ns1="http://www.iki.fi/pav/software/textext/">
  <sodipodi:namedview
     id="namedview1"
     pagecolor="#ffffff"
     bordercolor="#000000"
     borderopacity="0.25"
     inkscape:showpageshadow="2"
     inkscape:pageopacity="0.0"
     inkscape:pagecheckerboard="0"
     inkscape:deskcolor="#d1d1d1"
     inkscape:zoom="2.8873526"
     inkscape:cx="76.713873"
     inkscape:cy="115.33056"
     inkscape:window-width="1920"
     inkscape:window-height="960"
     inkscape:window-x="0"
     inkscape:window-y="0"
     inkscape:window-maximized="1"
     inkscape:current-layer="g102"
     showguides="true">
    <inkscape:page
       x="0"
       y="0"
       inkscape:label="2"
       id="page1"
       width="174.36391"
       height="184.01416"
       margin="0"
       bleed="0" />
  </sodipodi:namedview>
  <defs
     id="defs1">
    <marker
       style="overflow:visible"
       id="marker84"
       refX="0"
       refY="0"
       orient="auto-start-reverse"
       inkscape:stockid="Wide, heavy arrow"
       markerWidth="1"
       markerHeight="1"
       viewBox="0 0 1 1"
       inkscape:isstock="true"
       inkscape:collect="always"
       preserveAspectRatio="xMidYMid">
      <path
         style="fill:context-stroke;fill-rule:evenodd;stroke:none"
         d="m 1,0 -3,3 h -2 l 3,-3 -3,-3 h 2 z"
         id="path84" />
    </marker>
    <marker
       style="overflow:visible"
       id="ArrowWideHeavy"
       refX="0"
       refY="0"
       orient="auto-start-reverse"
       inkscape:stockid="Wide, heavy arrow"
       markerWidth="1"
       markerHeight="1"
       viewBox="0 0 1 1"
       inkscape:isstock="true"
       inkscape:collect="always"
       preserveAspectRatio="xMidYMid">
      <path
         style="fill:context-stroke;fill-rule:evenodd;stroke:none"
         d="m 1,0 -3,3 h -2 l 3,-3 -3,-3 h 2 z"
         id="path83" />
    </marker>
    <clipPath
       clipPathUnits="userSpaceOnUse"
       id="clipPath1">
      <path
         d="M 0,0 H 578.10352 V 264.10001 H 0 Z"
         transform="matrix(1,0,0,-1,0,264.1)"
         id="path1" />
    </clipPath>
    <clipPath
       clipPathUnits="userSpaceOnUse"
       id="clipPath2">
      <path
         d="M 0,0 H 578.10352 V 264.10001 H 0 Z"
         id="path2" />
    </clipPath>
    <clipPath
       clipPathUnits="userSpaceOnUse"
       id="clipPath3">
      <path
         d="M 0,0 H 578.10352 V 264.10001 H 0 Z"
         transform="matrix(1,0,0,-1,0,264.1)"
         id="path3" />
    </clipPath>
    <clipPath
       clipPathUnits="userSpaceOnUse"
       id="clipPath4">
      <path
         d="M 0,0 H 578.10352 V 264.10001 H 0 Z"
         transform="matrix(1,0,0,-1,0,264.1)"
         id="path4" />
    </clipPath>
    <clipPath
       clipPathUnits="userSpaceOnUse"
       id="clipPath5">
      <path
         d="M 0,0 H 578.10352 V 264.10001 H 0 Z"
         transform="matrix(1,0,0,-1,0,264.1)"
         id="path5" />
    </clipPath>
    <clipPath
       clipPathUnits="userSpaceOnUse"
       id="clipPath6">
      <path
         d="M 0,0 H 578.10352 V 264.10001 H 0 Z"
         transform="matrix(1,0,0,-1,0,264.1)"
         id="path6" />
    </clipPath>
    <clipPath
       clipPathUnits="userSpaceOnUse"
       id="clipPath7">
      <path
         d="M 0,0 H 578.10352 V 264.10001 H 0 Z"
         transform="matrix(0,-1,-1,0,264.1,0)"
         id="path7" />
    </clipPath>
    <clipPath
       clipPathUnits="userSpaceOnUse"
       id="clipPath8">
      <path
         d="M 0,0 H 578.10352 V 264.10001 H 0 Z"
         transform="matrix(0.49991977,0.5089568,0.5089568,-0.49991977,-134.4155,132.02881)"
         id="path8" />
    </clipPath>
    <clipPath
       clipPathUnits="userSpaceOnUse"
       id="clipPath9">
      <path
         d="M 0,0 H 578.10352 V 264.10001 H 0 Z"
         transform="matrix(1,0,0,-1,0,264.1)"
         id="path9" />
    </clipPath>
    <clipPath
       clipPathUnits="userSpaceOnUse"
       id="clipPath10">
      <path
         d="M 0,0 H 578.10352 V 264.10001 H 0 Z"
         transform="matrix(-1,0,0,1,0,-264.1)"
         id="path10" />
    </clipPath>
    <clipPath
       clipPathUnits="userSpaceOnUse"
       id="clipPath11">
      <path
         d="M 0,0 H 578.10352 V 264.10001 H 0 Z"
         transform="matrix(1,0,0,-1,0,264.1)"
         id="path11" />
    </clipPath>
    <clipPath
       clipPathUnits="userSpaceOnUse"
       id="clipPath12">
      <path
         d="M 0,0 H 578.10352 V 264.10001 H 0 Z"
         transform="matrix(-0.14279612,-0.97917561,-0.97917561,0.14279612,258.60028,-37.712456)"
         id="path12" />
    </clipPath>
    <clipPath
       clipPathUnits="userSpaceOnUse"
       id="clipPath13">
      <path
         d="M 0,0 H 578.10352 V 264.10001 H 0 Z"
         transform="matrix(1,0,0,-1,0,264.1)"
         id="path13" />
    </clipPath>
    <clipPath
       clipPathUnits="userSpaceOnUse"
       id="clipPath14">
      <path
         d="M 0,0 H 578.10352 V 264.10001 H 0 Z"
         transform="matrix(0,1,1,0,-264.1,0)"
         id="path14" />
    </clipPath>
    <clipPath
       clipPathUnits="userSpaceOnUse"
       id="clipPath15">
      <path
         d="M 0,0 H 578.10352 V 264.10001 H 0 Z"
         id="path15" />
    </clipPath>
    <clipPath
       clipPathUnits="userSpaceOnUse"
       id="clipPath16">
      <path
         d="M 0,0 H 578.10352 V 264.10001 H 0 Z"
         id="path16" />
    </clipPath>
    <clipPath
       clipPathUnits="userSpaceOnUse"
       id="clipPath17">
      <path
         d="M 0,0 H 578.10352 V 264.10001 H 0 Z"
         transform="matrix(1,0,0,-1,0,264.1)"
         id="path17" />
    </clipPath>
    <clipPath
       clipPathUnits="userSpaceOnUse"
       id="clipPath18">
      <path
         d="M 0,0 H 578.10352 V 264.10001 H 0 Z"
         transform="matrix(1,0,0,-1,0,264.1)"
         id="path18" />
    </clipPath>
    <clipPath
       clipPathUnits="userSpaceOnUse"
       id="clipPath19">
      <path
         d="M 0,0 H 578.10352 V 264.10001 H 0 Z"
         transform="matrix(0,-1,-1,0,264.1,0)"
         id="path19" />
    </clipPath>
    <clipPath
       clipPathUnits="userSpaceOnUse"
       id="clipPath20">
      <path
         d="M 0,0 H 578.10352 V 264.10001 H 0 Z"
         transform="matrix(1,0,0,-1,0,264.1)"
         id="path20" />
    </clipPath>
    <clipPath
       clipPathUnits="userSpaceOnUse"
       id="clipPath21">
      <path
         d="M 0,0 H 578.10352 V 264.10001 H 0 Z"
         transform="matrix(1,0,0,-1,0,264.1)"
         id="path21" />
    </clipPath>
    <clipPath
       clipPathUnits="userSpaceOnUse"
       id="clipPath22">
      <path
         d="M 0,0 H 578.10352 V 264.10001 H 0 Z"
         transform="matrix(1,0,0,-1,0,264.1)"
         id="path22" />
    </clipPath>
    <clipPath
       clipPathUnits="userSpaceOnUse"
       id="clipPath23">
      <path
         d="M 0,0 H 578.10352 V 264.10001 H 0 Z"
         transform="matrix(1,0,0,-1,0,264.1)"
         id="path23" />
    </clipPath>
    <clipPath
       clipPathUnits="userSpaceOnUse"
       id="clipPath24">
      <path
         d="M 0,0 H 578.10352 V 264.10001 H 0 Z"
         transform="matrix(1,0,0,-1,0,264.1)"
         id="path24" />
    </clipPath>
    <clipPath
       clipPathUnits="userSpaceOnUse"
       id="clipPath25">
      <path
         d="M 0,0 H 578.10352 V 264.10001 H 0 Z"
         transform="matrix(0.47008748,-0.67034599,-0.67034599,-0.47008748,177.03838,124.15011)"
         id="path25" />
    </clipPath>
    <clipPath
       clipPathUnits="userSpaceOnUse"
       id="clipPath26">
      <path
         d="M 0,0 H 578.10352 V 264.10001 H 0 Z"
         transform="matrix(1.0683635,0,0,-1,0,264.1)"
         id="path26" />
    </clipPath>
    <clipPath
       clipPathUnits="userSpaceOnUse"
       id="clipPath27">
      <path
         d="M 0,0 H 578.10352 V 264.10001 H 0 Z"
         transform="matrix(1.0683635,0,0,-1,0,264.1)"
         id="path27" />
    </clipPath>
    <clipPath
       clipPathUnits="userSpaceOnUse"
       id="clipPath28">
      <path
         d="M 0,0 H 578.10352 V 264.10001 H 0 Z"
         transform="matrix(1.0683635,0,0,-1,0,264.1)"
         id="path28" />
    </clipPath>
    <clipPath
       clipPathUnits="userSpaceOnUse"
       id="clipPath29">
      <path
         d="M 0,0 H 578.10352 V 264.10001 H 0 Z"
         transform="matrix(1,0,0,-1,0,264.1)"
         id="path29" />
    </clipPath>
    <clipPath
       clipPathUnits="userSpaceOnUse"
       id="clipPath30">
      <path
         d="M 0,0 H 578.10352 V 264.10001 H 0 Z"
         transform="matrix(-0.966351,-0.180324,-0.180324,0.966351,47.623568,-255.2133)"
         id="path30" />
    </clipPath>
    <clipPath
       clipPathUnits="userSpaceOnUse"
       id="clipPath31">
      <path
         d="M 0,0 H 578.10352 V 264.10001 H 0 Z"
         transform="matrix(1,0,0,-1,0,264.1)"
         id="path31" />
    </clipPath>
    <clipPath
       clipPathUnits="userSpaceOnUse"
       id="clipPath32">
      <path
         d="M 0,0 H 578.10352 V 264.10001 H 0 Z"
         transform="matrix(0,-1,-1,0,264.1,0)"
         id="path32" />
    </clipPath>
    <clipPath
       clipPathUnits="userSpaceOnUse"
       id="clipPath33">
      <path
         d="M 0,0 H 578.10352 V 264.10001 H 0 Z"
         transform="matrix(1,0,0,-1,0,264.1)"
         id="path33" />
    </clipPath>
    <clipPath
       clipPathUnits="userSpaceOnUse"
       id="clipPath34">
      <path
         d="M 0,0 H 578.10352 V 264.10001 H 0 Z"
         transform="matrix(0.00833244,-0.99993056,-0.99993056,-0.00833244,264.08167,2.2005981)"
         id="path34" />
    </clipPath>
    <clipPath
       clipPathUnits="userSpaceOnUse"
       id="clipPath35">
      <path
         d="M 0,0 H 578.10352 V 264.10001 H 0 Z"
         transform="matrix(1,0,0,-1,0,264.1)"
         id="path35" />
    </clipPath>
    <clipPath
       clipPathUnits="userSpaceOnUse"
       id="clipPath36">
      <path
         d="M 0,0 H 578.10352 V 264.10001 H 0 Z"
         transform="matrix(0.29323516,-0.90498535,-0.90498535,-0.29323516,239.00664,77.443407)"
         id="path36" />
    </clipPath>
    <clipPath
       clipPathUnits="userSpaceOnUse"
       id="clipPath37">
      <path
         d="M 0,0 H 578.10352 V 264.10001 H 0 Z"
         transform="matrix(1,0,0,-1,0,264.1)"
         id="path37" />
    </clipPath>
    <clipPath
       clipPathUnits="userSpaceOnUse"
       id="clipPath38">
      <path
         d="M 0,0 H 578.10352 V 264.10001 H 0 Z"
         transform="matrix(0.48375802,-0.62640481,-0.62640481,-0.48375802,165.43351,127.7605)"
         id="path38" />
    </clipPath>
    <clipPath
       clipPathUnits="userSpaceOnUse"
       id="clipPath39">
      <path
         d="M 0,0 H 578.10352 V 264.10001 H 0 Z"
         transform="matrix(1,0,0,-1,0,264.1)"
         id="path39" />
    </clipPath>
    <clipPath
       clipPathUnits="userSpaceOnUse"
       id="clipPath40">
      <path
         d="M 0,0 H 578.10352 V 264.10001 H 0 Z"
         transform="matrix(-0.76663636,-0.42297169,-0.42297169,0.76663636,111.70683,-202.46867)"
         id="path40" />
    </clipPath>
    <clipPath
       clipPathUnits="userSpaceOnUse"
       id="clipPath41">
      <path
         d="M 0,0 H 612 V 792 H 0 Z"
         transform="matrix(1.3333333,0,0,-1.3333333,0,1056)"
         id="path41" />
    </clipPath>
    <clipPath
       clipPathUnits="userSpaceOnUse"
       id="clipPath42">
      <path
         d="M 0,0 H 612 V 792 H 0 Z"
         transform="matrix(1,0,0,-1,-178.04201,680.15401)"
         id="path42" />
    </clipPath>
    <clipPath
       clipPathUnits="userSpaceOnUse"
       id="clipPath43">
      <path
         d="M 0,0 H 612 V 792 H 0 Z"
         transform="matrix(1,0,0,-1,-132.56401,680.81601)"
         id="path43" />
    </clipPath>
    <clipPath
       clipPathUnits="userSpaceOnUse"
       id="clipPath44">
      <path
         d="M 0,0 H 612 V 792 H 0 Z"
         transform="matrix(1,0,0,-1,-153.80301,693.88201)"
         id="path44" />
    </clipPath>
    <clipPath
       clipPathUnits="userSpaceOnUse"
       id="clipPath45">
      <path
         d="M 0,0 H 612 V 792 H 0 Z"
         transform="matrix(1,0,0,-1,-162.32601,676.16401)"
         id="path45" />
    </clipPath>
    <clipPath
       clipPathUnits="userSpaceOnUse"
       id="clipPath46">
      <path
         d="M 0,0 H 612 V 792 H 0 Z"
         transform="matrix(1,0,0,-1,-87.00001,630.92801)"
         id="path46" />
    </clipPath>
    <clipPath
       clipPathUnits="userSpaceOnUse"
       id="clipPath47">
      <path
         d="M 0,0 H 612 V 792 H 0 Z"
         transform="matrix(1,0,0,-1,-53.453011,633.45901)"
         id="path47" />
    </clipPath>
    <clipPath
       clipPathUnits="userSpaceOnUse"
       id="clipPath48">
      <path
         d="M 0,0 H 612 V 792 H 0 Z"
         transform="matrix(1,0,0,-1,-63.012011,614.79701)"
         id="path48" />
    </clipPath>
    <clipPath
       clipPathUnits="userSpaceOnUse"
       id="clipPath49">
      <path
         d="M 0,0 H 612 V 792 H 0 Z"
         transform="matrix(1,0,0,-1,-72.735011,643.75201)"
         id="path49" />
    </clipPath>
    <clipPath
       clipPathUnits="userSpaceOnUse"
       id="clipPath50">
      <path
         d="M 0,0 H 612 V 792 H 0 Z"
         transform="matrix(1,0,0,-1,-166.49001,619.39901)"
         id="path50" />
    </clipPath>
    <clipPath
       clipPathUnits="userSpaceOnUse"
       id="clipPath51">
      <path
         d="M 0,0 H 612 V 792 H 0 Z"
         transform="matrix(1,0,0,-1,-217.17601,734.72601)"
         id="path51" />
    </clipPath>
    <clipPath
       clipPathUnits="userSpaceOnUse"
       id="clipPath52">
      <path
         d="M 0,0 H 612 V 792 H 0 Z"
         transform="matrix(1,0,0,-1,-202.86501,719.33401)"
         id="path52" />
    </clipPath>
    <clipPath
       clipPathUnits="userSpaceOnUse"
       id="clipPath54">
      <path
         d="M 0,0 H 612 V 792 H 0 Z"
         transform="matrix(1,0,0,-1,-185.781,715.62201)"
         id="path54" />
    </clipPath>
    <clipPath
       clipPathUnits="userSpaceOnUse"
       id="clipPath55">
      <path
         d="M 0,0 H 612 V 792 H 0 Z"
         transform="matrix(1,0,0,-1,-149.92601,710.72401)"
         id="path55" />
    </clipPath>
    <clipPath
       clipPathUnits="userSpaceOnUse"
       id="clipPath56">
      <path
         d="M 0,0 H 612 V 792 H 0 Z"
         transform="matrix(1,0,0,-1,-54.000004,587.44701)"
         id="path56" />
    </clipPath>
    <clipPath
       clipPathUnits="userSpaceOnUse"
       id="clipPath57">
      <path
         d="M 0,0 H 612 V 792 H 0 Z"
         transform="matrix(1,0,0,-1,-54.000004,539.64001)"
         id="path57" />
    </clipPath>
    <clipPath
       clipPathUnits="userSpaceOnUse"
       id="clipPath58">
      <path
         d="M 0,0 H 612 V 792 H 0 Z"
         transform="matrix(1,0,0,-1,-313.19999,729.96301)"
         id="path58" />
    </clipPath>
    <clipPath
       clipPathUnits="userSpaceOnUse"
       id="clipPath59">
      <path
         d="M 0,0 H 612 V 792 H 0 Z"
         transform="matrix(1,0,0,-1,-548.36198,697.184)"
         id="path59" />
    </clipPath>
    <clipPath
       clipPathUnits="userSpaceOnUse"
       id="clipPath60">
      <path
         d="M 0,0 H 612 V 792 H 0 Z"
         transform="matrix(1,0,0,-1,-313.19997,679.349)"
         id="path60" />
    </clipPath>
    <clipPath
       clipPathUnits="userSpaceOnUse"
       id="clipPath61">
      <path
         d="M 0,0 H 612 V 792 H 0 Z"
         transform="matrix(1.3333333,0,0,-1.3333333,0,1056)"
         id="path61" />
    </clipPath>
    <clipPath
       clipPathUnits="userSpaceOnUse"
       id="clipPath62">
      <path
         d="M 0,0 H 612 V 792 H 0 Z"
         transform="matrix(1.3333333,0,0,-1.3333333,0,1056)"
         id="path62" />
    </clipPath>
    <clipPath
       clipPathUnits="userSpaceOnUse"
       id="clipPath472">
      <g
         id="g473">
        <path
           d="M -1.410233e-6,1056 H 815.99998 V 2.4520933e-5 H -1.410233e-6 Z"
           id="path472"
           style="stroke-width:1.33333" />
      </g>
    </clipPath>
    <clipPath
       clipPathUnits="userSpaceOnUse"
       id="clipPath473">
      <g
         id="g474">
        <path
           d="M -1.410233e-6,1056 H 815.99998 V 2.4520933e-5 H -1.410233e-6 Z"
           id="path473"
           style="stroke-width:1.33333" />
      </g>
    </clipPath>
    <clipPath
       clipPathUnits="userSpaceOnUse"
       id="clipPath474">
      <g
         id="g475">
        <path
           d="M -1.410233e-6,1056 H 815.99998 V 2.4520933e-5 H -1.410233e-6 Z"
           id="path474"
           style="stroke-width:1.33333" />
      </g>
    </clipPath>
    <clipPath
       clipPathUnits="userSpaceOnUse"
       id="clipPath475">
      <g
         id="g476">
        <path
           d="M -1.410233e-6,1056 H 815.99998 V 2.4520933e-5 H -1.410233e-6 Z"
           id="path475"
           style="stroke-width:1.33333" />
      </g>
    </clipPath>
  </defs>
  <g
     id="g1"
     inkscape:groupmode="layer"
     inkscape:label="2"
     transform="translate(-142.951, -64.8125)">
    <g
       id="g468">
      <g
         clip-path="url(#clipPath62)"
         id="g467">
        <g
           clip-path="url(#clipPath61)"
           id="g466">
          <g
             clip-path="url(#clipPath41)"
             id="g102">
            <path
               d="m 149.22301,151.09399 81.875,2.70301 90.632,-45.012 -2.80801,-4.863"
               style="fill:none;stroke:#000000;stroke-width:2.901298;stroke-linecap:butt;stroke-linejoin:miter;stroke-miterlimit:4;stroke-dasharray:none;stroke-opacity:1"
               transform="matrix(0.68934663,0,0,0.68934663,72,66.770212)"
               clip-path="url(#clipPath1)"
               id="path63" />
            <path
               d="m 232,110.108 c 0,-0.664 -0.535,-1.199 -1.19901,-1.199 -0.65998,0 -1.19899,0.535 -1.19899,1.199 0,0.66 0.53901,1.199 1.19899,1.199 0.66401,0 1.19901,-0.539 1.19901,-1.199 z"
               style="fill:#000000;fill-opacity:1;fill-rule:nonzero;stroke:none"
               transform="matrix(0.68934663,0,0,-0.68934663,72,248.82666)"
               clip-path="url(#clipPath2)"
               id="path64" />
            <path
               d="m 231.30099,153.93401 -76.88699,76.886"
               style="fill:none;stroke:#000000;stroke-width:2.901298;stroke-linecap:butt;stroke-linejoin:miter;stroke-miterlimit:4;stroke-dasharray:none;stroke-opacity:1"
               transform="matrix(0.68934663,0,0,0.68934663,72,66.770212)"
               clip-path="url(#clipPath3)"
               id="path65" />
            <path
               d="m 153.16,135.992 -8.85901,28.86001 -40.85599,-0.57502 7.625,-28.461 z"
               style="fill:#e6e6e6;fill-opacity:1;fill-rule:nonzero;stroke:#000000;stroke-width:0.8;stroke-linecap:butt;stroke-linejoin:miter;stroke-miterlimit:4;stroke-dasharray:none;stroke-opacity:1"
               transform="matrix(0.68934663,0,0,0.68934663,72,66.770212)"
               clip-path="url(#clipPath4)"
               id="path66" />
            <path
               d="M 144.539,226.88699 164.77299,236.383 131.36301,263.55499 112.621,253.53101 Z"
               style="fill:#e6e6e6;fill-opacity:1;fill-rule:nonzero;stroke:#000000;stroke-width:0.929539;stroke-linecap:butt;stroke-linejoin:miter;stroke-miterlimit:4;stroke-dasharray:none;stroke-opacity:1"
               transform="matrix(0.68934663,0,0,0.68934663,72,66.770212)"
               clip-path="url(#clipPath5)"
               id="path67" />
            <path
               d="m 264.36301,36.762001 c 0,0 13.60199,8.799999 16.39898,-10.399"
               style="fill:none;stroke:#000000;stroke-width:0.8;stroke-linecap:butt;stroke-linejoin:miter;stroke-miterlimit:4;stroke-dasharray:none;stroke-opacity:1"
               transform="matrix(0.68934663,0,0,0.68934663,76.480867,67.183477)"
               clip-path="url(#clipPath11)"
               id="path73" />
            <path
               d="m -11.113,-278.67999 1.5850001,-1.58301 -5.5430001,1.582 5.5399999,1.58301 z"
               style="fill:#000000;fill-opacity:1;fill-rule:evenodd;stroke:#000000;stroke-width:0.395813;stroke-linecap:butt;stroke-linejoin:miter;stroke-miterlimit:4;stroke-dasharray:none;stroke-opacity:1"
               transform="matrix(-0.10052949,0.68934663,-0.68934663,-0.10052949,76.480867,67.183477)"
               clip-path="url(#clipPath12)"
               id="path74" />
            <path
               d="m 208.51601,152.86301 v 84.125"
               style="fill:none;stroke:#000000;stroke-width:0.8;stroke-linecap:butt;stroke-linejoin:miter;stroke-miterlimit:4;stroke-dasharray:none;stroke-opacity:1"
               transform="matrix(0.68934663,0,0,0.68934663,72,66.770212)"
               clip-path="url(#clipPath13)"
               id="path75" />
            <path
               d="m -228.98801,208.51601 3.20301,-3.20002 -11.20301,3.20002 11.20301,3.19899 z"
               style="fill:#000000;fill-opacity:1;fill-rule:evenodd;stroke:#000000;stroke-width:0.8;stroke-linecap:butt;stroke-linejoin:miter;stroke-miterlimit:4;stroke-dasharray:none;stroke-opacity:1"
               transform="matrix(0,-0.68934663,0.68934663,0,72,66.770212)"
               clip-path="url(#clipPath14)"
               id="path76" />
            <path
               d="m 355.15601,196.366 c 4.29699,-8.35199 -11.34,-24.153 -34.926,-35.297 -23.58502,-11.14101 -46.19101,-13.403 -50.48801,-5.05499 -4.29699,8.35199 11.34,24.15599 34.926,35.29699 23.586,11.144 46.19101,13.406 50.48801,5.055 z"
               style="fill:#e6e6e6;fill-opacity:1;fill-rule:nonzero;stroke:none"
               transform="matrix(0.68934663,0,0,-0.68934663,72,248.82666)"
               clip-path="url(#clipPath15)"
               id="path77" />
            <path
               d="M 288.742,184.89301 C 279.164,178.651 272.461,171.17 269.47699,164.854 c -1.49298,-3.16 -1.44998,-6.527 -0.21899,-8.641 1.59701,-2.73799 2.96499,-3.761 5.828,-4.883 2.242,-0.878 11.043,-3.66701 26.69101,1.247 12.52798,4.242 24.004,10.01899 31.172,14.949 5.156,3.547 17.73898,13.301 21.289,20.11301 l 0.008,-0.004 c -4.14401,-6.625 -12.42999,-11.12098 -22.10501,-17.38699 -9.67999,-6.269 -21.53598,-11.464 -30.76199,-14.253 -11.551,-3.34 -20.293,-5.211 -25.76999,-3.508 -2.73801,0.851 -5.121,1.965 -5.914,3.77701 -0.793,1.81299 -0.097,4.52699 1.289,7.461 2.77399,5.87098 9.97299,12.74598 19.418,18.90199 9.44998,6.157 21.125,11.625 32.67999,14.965 6.99201,2.024 13.61301,3.789 18.86301,3.813 -5.45301,-0.028 -12.03501,-0.84 -19.24201,-2.485 -6.02301,-1.375 -10.80099,-2.718 -17.73001,-5.53501 -6.836,-2.57798 -11.43799,-5.36698 -16.23099,-8.49198 z"
               style="fill:#000000;fill-opacity:1;fill-rule:nonzero;stroke:none"
               transform="matrix(0.68934663,0,0,-0.68934663,72,248.82666)"
               clip-path="url(#clipPath16)"
               id="path78" />
            <g
               id="g470"
               transform="rotate(5.3767105,280.21176,126.18011)">
              <path
                 d="M 309.10901,86.839996 250.68401,3.523"
                 style="fill:none;stroke:#000000;stroke-width:0.8;stroke-linecap:butt;stroke-linejoin:miter;stroke-miterlimit:4;stroke-dasharray:none;stroke-opacity:1"
                 transform="matrix(0.68934663,0,0,0.68934663,72,66.770212)"
                 clip-path="url(#clipPath24)"
                 id="path86" />
              <path
                 d="m 126.756,-166.388 2.619,-2.621 -9.17,2.621 9.17,2.621 z"
                 style="fill:#000000;fill-opacity:1;fill-rule:evenodd;stroke:#000000;stroke-width:0.654997;stroke-linecap:butt;stroke-linejoin:miter;stroke-miterlimit:4;stroke-dasharray:none;stroke-opacity:1"
                 transform="matrix(0.48341189,0.68934663,-0.68934663,0.48341189,72,66.770212)"
                 clip-path="url(#clipPath25)"
                 id="path87" />
            </g>
            <path
               d="m 236.755,153.19501 c 0.013,6.821 -6.109,12.35998 -13.671,12.37098 m 0,0 c -7.562,0.012 -13.701,-5.50698 -13.714,-12.32798 m 0,0 C 209.358,146.414 215.476,140.879 223.03799,140.867 m 0,0 c 7.56202,-0.012 13.70501,5.508 13.71701,12.32801"
               style="fill:none;stroke:#000000;stroke-width:1.73386;stroke-linecap:butt;stroke-linejoin:miter;stroke-miterlimit:4;stroke-dasharray:none;stroke-opacity:1"
               transform="matrix(0.64523603,0,0,0.68934663,72,66.770212)"
               clip-path="url(#clipPath26)"
               id="path88" />
            <path
               d="m 209.37,153.23801 13.693,-0.023 -0.025,-12.348 c -3.10499,0.078 -5.472,1.653 -9.11898,4.129 -2.93401,2.41001 -3.89402,5.289 -4.54901,8.24201 z"
               style="fill:#000000;fill-opacity:1;fill-rule:nonzero;stroke:#000000;stroke-width:0.86693;stroke-linecap:butt;stroke-linejoin:miter;stroke-miterlimit:4;stroke-dasharray:none;stroke-opacity:1"
               transform="matrix(0.64523603,0,0,0.68934663,72,66.770212)"
               clip-path="url(#clipPath27)"
               id="path89" />
            <path
               d="m 236.755,153.19501 -13.692,0.02 0.021,12.35099 c 3.104,-0.082 5.47501,-1.65599 9.118,-4.12799 2.934,-2.41101 3.89399,-5.29001 4.553,-8.24299 z"
               style="fill:#000000;fill-opacity:1;fill-rule:nonzero;stroke:#000000;stroke-width:0.86693;stroke-linecap:butt;stroke-linejoin:miter;stroke-miterlimit:4;stroke-dasharray:none;stroke-opacity:1"
               transform="matrix(0.64523603,0,0,0.68934663,72,66.770212)"
               clip-path="url(#clipPath28)"
               id="path90" />
            <path
               d="m 328.56601,64.566002 10.44998,-1.953003"
               style="fill:none;stroke:#000000;stroke-width:0.8;stroke-linecap:butt;stroke-linejoin:miter;stroke-miterlimit:4;stroke-dasharray:none;stroke-opacity:1"
               transform="matrix(0.68934663,0,0,0.68934663,72,66.770212)"
               clip-path="url(#clipPath29)"
               id="path91" />
            <path
               d="m -308.45401,-121.64 3.146,-3.148 -11.00898,3.149 11.00998,3.144 z"
               style="fill:#000000;fill-opacity:1;fill-rule:evenodd;stroke:#000000;stroke-width:0.786425;stroke-linecap:butt;stroke-linejoin:miter;stroke-miterlimit:4;stroke-dasharray:none;stroke-opacity:1"
               transform="matrix(-0.68934663,0.12863415,-0.12863415,-0.68934663,72,66.770212)"
               clip-path="url(#clipPath30)"
               id="path92" />
            <g
               id="g469"
               transform="rotate(134.0719,213.01579,168.48349)">
              <path
                 d="M 205,140.961 188.59399,90.332001"
                 style="fill:none;stroke:#000000;stroke-width:0.8;stroke-linecap:butt;stroke-linejoin:miter;stroke-miterlimit:4;stroke-dasharray:none;stroke-opacity:1"
                 transform="matrix(0.68934663,0,0,0.68934663,72,66.770212)"
                 clip-path="url(#clipPath35)"
                 id="path97" />
              <path
                 d="m 140.099,-144.187 1.519,-1.51899 -5.32801,1.51899 5.32701,1.523 z"
                 style="fill:#000000;fill-opacity:1;fill-rule:evenodd;stroke:#000000;stroke-width:0.380523;stroke-linecap:butt;stroke-linejoin:miter;stroke-miterlimit:4;stroke-dasharray:none;stroke-opacity:1"
                 transform="matrix(0.22336347,0.68934663,-0.68934663,0.22336347,72,66.770212)"
                 clip-path="url(#clipPath36)"
                 id="path98" />
            </g>
            <g
               id="g471"
               transform="rotate(7.1997868,216.18295,179.0537)">
              <path
                 d="M 200.61301,143.082 167.52299,100.234"
                 style="fill:none;stroke:#000000;stroke-width:0.8;stroke-linecap:butt;stroke-linejoin:miter;stroke-miterlimit:4;stroke-dasharray:none;stroke-opacity:1"
                 transform="matrix(-0.68934663,0,0,-0.68934663,353.78122,270.74203)"
                 clip-path="url(#clipPath37)"
                 id="path99" />
              <path
                 d="m 146.35899,-56.446999 1.26702,-1.267002 -4.43502,1.265999 4.43401,1.264004 z"
                 style="fill:#000000;fill-opacity:1;fill-rule:evenodd;stroke:#000000;stroke-width:0.316583;stroke-linecap:butt;stroke-linejoin:miter;stroke-miterlimit:4;stroke-dasharray:none;stroke-opacity:1"
                 transform="matrix(-0.53236654,-0.68934663,0.68934663,-0.53236654,353.78122,270.74203)"
                 clip-path="url(#clipPath38)"
                 id="path100" />
            </g>
            <path
               d="m 219.56599,145.203 49.21502,-27.152"
               style="fill:none;stroke:#000000;stroke-width:0.8;stroke-linecap:butt;stroke-linejoin:miter;stroke-miterlimit:4;stroke-dasharray:none;stroke-opacity:1"
               transform="matrix(0.68934663,0,0,0.68934663,72,66.770212)"
               clip-path="url(#clipPath39)"
               id="path101" />
            <path
               d="m -153.321,-204.188 1.398,-1.401 -4.902,1.401 4.903,1.40001 z"
               style="fill:#000000;fill-opacity:1;fill-rule:evenodd;stroke:#000000;stroke-width:0.350231;stroke-linecap:butt;stroke-linejoin:miter;stroke-miterlimit:4;stroke-dasharray:none;stroke-opacity:1"
               transform="matrix(-0.68934663,0.38032909,-0.38032909,-0.68934663,72,66.770212)"
               clip-path="url(#clipPath40)"
               id="path102" />
            <g
               transform="matrix(1.5285489,0,0,1.5285489,218.00005,114.85872)"
               ns1:version="1.10.0"
               ns1:texconverter="pdflatex"
               ns1:pdfconverter="inkscape"
               ns1:text="$l$"
               ns1:preamble="/home/zach/.config/inkscape/extensions/textext/default_packages.tex"
               ns1:scale="5.030808202020506"
               ns1:alignment="middle center"
               ns1:stroke-to-path="0"
               ns1:inkscapeversion="1.3.2"
               id="g1260"
               ns1:jacobian_sqrt="6.70773">
              <defs
                 id="id-7ed38907-b43a-4f8e-bd8b-bd46dd50421c">
                <g
                   id="id-0f39a7d5-0805-4c81-a342-ed531b125d43">
                  <symbol
                     overflow="visible"
                     id="id-95b315ab-206c-4010-83b3-695374116027">
                    <path
                       style="stroke:none;stroke-width:0"
                       d=""
                       id="id-d632e030-0cdc-4a45-ba99-9030599f2237" />
                  </symbol>
                  <symbol
                     overflow="visible"
                     id="id-efa15da1-66a8-43e7-9996-bb47db2013e7">
                    <path
                       style="stroke:none;stroke-width:0"
                       d="m 2.578125,-6.8125 c 0,0 0,-0.109375 -0.140625,-0.109375 -0.21875,0 -0.953125,0.078125 -1.21875,0.109375 -0.078125,0 -0.1875,0.015625 -0.1875,0.203125 0,0.109375 0.109375,0.109375 0.25,0.109375 0.484375,0 0.5,0.09375 0.5,0.171875 L 1.75,-6.125 0.484375,-1.140625 C 0.453125,-1.03125 0.4375,-0.96875 0.4375,-0.8125 c 0,0.578125 0.4375,0.921875 0.90625,0.921875 0.328125,0 0.578125,-0.203125 0.75,-0.5625 0.171875,-0.375 0.296875,-0.953125 0.296875,-0.96875 0,-0.109375 -0.09375,-0.109375 -0.125,-0.109375 -0.09375,0 -0.109375,0.046875 -0.125,0.1875 C 1.96875,-0.703125 1.78125,-0.109375 1.375,-0.109375 c -0.296875,0 -0.296875,-0.3125 -0.296875,-0.453125 0,-0.25 0.015625,-0.296875 0.0625,-0.484375 z m 0,0"
                       id="id-5ed88653-4005-4017-b194-2fa95722379a" />
                  </symbol>
                </g>
              </defs>
              <g
                 id="id-0b1412c7-76f5-4fe4-9868-a483439a613c"
                 transform="translate(-149.15,-127.843)">
                <g
                   style="fill:#000000;fill-opacity:1"
                   id="id-6e73c878-82e4-4880-89bd-9e053a1187ed">
                  <g
                     transform="translate(148.712,134.765)"
                     id="g3571">
                    <path
                       style="stroke:none;stroke-width:0"
                       d="m 2.578125,-6.8125 c 0,0 0,-0.109375 -0.140625,-0.109375 -0.21875,0 -0.953125,0.078125 -1.21875,0.109375 -0.078125,0 -0.1875,0.015625 -0.1875,0.203125 0,0.109375 0.109375,0.109375 0.25,0.109375 0.484375,0 0.5,0.09375 0.5,0.171875 L 1.75,-6.125 0.484375,-1.140625 C 0.453125,-1.03125 0.4375,-0.96875 0.4375,-0.8125 c 0,0.578125 0.4375,0.921875 0.90625,0.921875 0.328125,0 0.578125,-0.203125 0.75,-0.5625 0.171875,-0.375 0.296875,-0.953125 0.296875,-0.96875 0,-0.109375 -0.09375,-0.109375 -0.125,-0.109375 -0.09375,0 -0.109375,0.046875 -0.125,0.1875 C 1.96875,-0.703125 1.78125,-0.109375 1.375,-0.109375 c -0.296875,0 -0.296875,-0.3125 -0.296875,-0.453125 0,-0.25 0.015625,-0.296875 0.0625,-0.484375 z m 0,0"
                       id="id-5f5346cf-9e9a-471f-80a7-1942f560f383" />
                  </g>
                </g>
              </g>
            </g>
          </g>
          <path
             d="m 3.3290863,-3.0110474 c 0.058594,-0.2578125 0.2929688,-1.171875 0.984375,-1.171875 0.046875,0 0.2929688,0 0.5039063,0.1289063 -0.28125,0.046875 -0.4804688,0.3046875 -0.4804688,0.5390625 0,0.1640625 0.1054688,0.3515625 0.375,0.3515625 0.2226563,0 0.5390625,-0.1875 0.5390625,-0.5859375 0,-0.515625 -0.5859375,-0.65625 -0.9257812,-0.65625 -0.5742188,0 -0.9257813,0.5273437 -1.0429688,0.7617187 -0.2578125,-0.65625 -0.7851562,-0.7617187 -1.078125,-0.7617187 -1.0429687,0 -1.60546874,1.2890625 -1.60546874,1.5351562 0,0.1054688 0.10546875,0.1054688 0.1171875,0.1054688 0.0820313,0 0.1171875,-0.023437 0.12890625,-0.1171875 0.33984379,-1.0546875 0.99609379,-1.3007813 1.33593749,-1.3007813 0.1875,0 0.5390625,0.09375 0.5390625,0.6679688 0,0.3046875 -0.1640625,0.9726562 -0.5390625,2.3671875 -0.1523437,0.62109374 -0.5039062,1.04296874 -0.9492187,1.04296874 -0.058594,0 -0.28125004,0 -0.49218754,-0.12890625 0.24609375,-0.0585938 0.46875004,-0.26953125 0.46875004,-0.5390625 0,-0.26953129 -0.22265629,-0.35156249 -0.37500004,-0.35156249 -0.29296875,0 -0.5390625,0.25781249 -0.5390625,0.57421874 0,0.45703125 0.4921875,0.65625 0.93750004,0.65625 0.65625,0 1.0078125,-0.69140625 1.0429687,-0.75 0.1171875,0.36328125 0.4804688,0.75 1.078125,0.75 1.0195313,0 1.59375,-1.27734374 1.59375,-1.53515624 0,-0.09375 -0.09375,-0.09375 -0.1289062,-0.09375 -0.082031,0 -0.1054688,0.035156 -0.1289063,0.1054687 -0.328125,1.06640629 -0.9960937,1.31250004 -1.3242187,1.31250004 -0.3867188,0 -0.5390625,-0.328125 -0.5390625,-0.65625 0,-0.22265625 0.058594,-0.44531254 0.1640625,-0.87890624 z m 0,0"
             style="fill:#000000;fill-opacity:1;fill-rule:nonzero;stroke:none"
             aria-label="x"
             transform="matrix(1.3333333,0,0,1.3333333,237.38934,149.12801)"
             clip-path="url(#clipPath42)"
             id="path103" />
          <path
             d="M 1.3256416,-0.83146924 C 1.8647041,-1.405688 2.1576729,-1.6517817 2.5092354,-1.9564692 c 0,-0.011719 0.6210937,-0.5390625 0.984375,-0.9023438 0.9375,-0.9257812 1.1601562,-1.40625 1.1601562,-1.4414062 0,-0.1054688 -0.09375,-0.1054688 -0.1054687,-0.1054688 -0.070312,0 -0.1054688,0.023437 -0.1523438,0.1171875 -0.3046875,0.46875 -0.5039062,0.6328125 -0.75,0.6328125 -0.234375,0 -0.3515625,-0.1523437 -0.5039062,-0.3164062 -0.1875,-0.234375 -0.3632813,-0.4335938 -0.6914063,-0.4335938 -0.75,0 -1.2070312,0.9257813 -1.2070312,1.1367188 0,0.046875 0.035156,0.1171875 0.1171875,0.1171875 0.09375,0 0.1171875,-0.058594 0.140625,-0.1171875 0.1875,-0.4570313 0.7617187,-0.46875 0.84375,-0.46875 0.2109375,0 0.3984375,0.070312 0.6210937,0.1523437 0.3984375,0.1523438 0.515625,0.1523438 0.7734375,0.1523438 -0.3632812,0.421875 -1.1953125,1.1367187 -1.3828125,1.3007812 l -0.9023437,0.8320313 c -0.67968751,0.66796871 -1.01953126,1.24218746 -1.01953126,1.31249996 0,0.09375 0.09375,0.09375 0.1171875,0.09375 0.0820313,0 0.09375,-0.01171875 0.15234375,-0.12890625 0.234375,-0.33984375 0.52734371,-0.609375 0.85546871,-0.609375 0.2226563,0 0.328125,0.0820313 0.5742188,0.375 0.1640625,0.2109375 0.3515625,0.36328125 0.6328125,0.36328125 0.984375,0 1.5703125,-1.26562496 1.5703125,-1.53515626 0,-0.046875 -0.046875,-0.09375 -0.1171875,-0.09375 -0.09375,0 -0.1171875,0.058594 -0.140625,0.1289063 -0.234375,0.64453121 -0.8671875,0.83203121 -1.1953125,0.83203121 -0.1992188,0 -0.3867188,-0.0585938 -0.5859375,-0.12890625 -0.3398438,-0.12890625 -0.4921875,-0.1640625 -0.703125,-0.1640625 -0.023437,0 -0.1757813,0 -0.2695313,0.0234375 z m 0,0"
             style="fill:#000000;fill-opacity:1;fill-rule:nonzero;stroke:none"
             aria-label="z"
             transform="matrix(1.3333333,0,0,1.3333333,221.97008,203.95527)"
             clip-path="url(#clipPath43)"
             id="path104" />
          <path
             d="m 4.839571,-3.7967193 c 0.046875,-0.140625 0.046875,-0.1523437 0.046875,-0.2226562 0,-0.1875 -0.140625,-0.2695313 -0.2929687,-0.2695313 -0.1054688,0 -0.2578125,0.058594 -0.3515625,0.1992188 -0.023437,0.058594 -0.09375,0.3632812 -0.140625,0.5390625 -0.070312,0.2578125 -0.140625,0.5273437 -0.1992188,0.796875 l -0.4453125,1.79296874 c -0.035156,0.15234375 -0.46875,0.85546875 -1.125,0.85546875 -0.5039062,0 -0.6210937,-0.4453125 -0.6210937,-0.80859375 0,-0.45703124 0.1757812,-1.07812504 0.515625,-1.95703124 0.1523437,-0.4101563 0.1992187,-0.515625 0.1992187,-0.7148438 0,-0.4453125 -0.328125,-0.8203125 -0.8203125,-0.8203125 -0.94921875,0 -1.3125,1.453125 -1.3125,1.5351563 0,0.1054687 0.09375,0.1054687 0.1171875,0.1054687 0.09375,0 0.10546875,-0.023437 0.15234375,-0.1875 0.26953125,-0.9375 0.66796875,-1.2304687 1.00781255,-1.2304687 0.082031,0 0.2578125,0 0.2578125,0.3164062 0,0.2460938 -0.1054688,0.515625 -0.1757813,0.703125 -0.3984375,1.0546875 -0.5742187,1.6171875 -0.5742187,2.0859375 0,0.89062504 0.6210937,1.18359379 1.21875,1.18359379 0.3867187,0 0.7265625,-0.1640625 0.9960937,-0.4453125 C 3.1637898,0.17593699 3.0466023,0.66812449 2.6481648,1.1954682 2.3903523,1.535312 2.0153523,1.8282807 1.558321,1.8282807 c -0.140625,0 -0.59765625,-0.035156 -0.76171875,-0.421875 0.1640625,0 0.29296875,0 0.43359375,-0.1171875 0.09375,-0.09375 0.1992188,-0.2226562 0.1992188,-0.41015621 0,-0.31640625 -0.2695313,-0.3515625 -0.375,-0.3515625 -0.2226563,0 -0.5507813,0.1640625 -0.5507813,0.64453121 0,0.5039063 0.43359375,0.8671875 1.0546875,0.8671875 1.0195313,0 2.0507813,-0.9023437 2.3320313,-2.02734371 z m 0,0"
             style="fill:#000000;fill-opacity:1;fill-rule:nonzero;stroke:none"
             aria-label="y"
             transform="matrix(1.3333333,0,0,1.3333333,253.81781,185.82465)"
             clip-path="url(#clipPath44)"
             id="path105" />
          <path
             d="m 1.5929384,-0.77253217 c -0.09375,0.38671875 -0.1171875,0.46875 -0.90234372,0.46875 -0.17578125,0 -0.26953125,0 -0.26953125,0.19921875 0,0.1054687525 0.0820313,0.1054687525 0.26953125,0.1054687525 H 4.2413759 c 1.5703125,0 2.7539063,-1.1718750325 2.7539063,-2.1562500325 0,-0.7148437 -0.5859375,-1.2890625 -1.546875,-1.3945312 1.03125,-0.1992188 2.0859375,-0.9375 2.0859375,-1.875 0,-0.7382813 -0.65625,-1.3828125 -1.8515625,-1.3828125 H 2.3312197 c -0.1875,0 -0.2929688,0 -0.2929688,0.1992187 0,0.1171875 0.09375,0.1171875 0.28125,0.1171875 0.023437,0 0.2109375,0 0.375,0.011719 0.1875,0.023437 0.2695313,0.035156 0.2695313,0.1640625 0,0.035156 -0.011719,0.070312 -0.035156,0.1875 z m 1.5,-2.87109373 0.6210938,-2.4726563 c 0.09375,-0.3515625 0.1054687,-0.375 0.5390625,-0.375 h 1.2890625 c 0.8671875,0 1.078125,0.5859375 1.078125,1.0195313 0,0.8789062 -0.8554688,1.828125 -2.0742188,1.828125 z m -0.4453125,3.33984373 c -0.140625,0 -0.1523437,0 -0.2226562,-0.0117188 -0.09375,-0.0117188 -0.1289063,-0.0234375 -0.1289063,-0.10546875 0,-0.0234375 0,-0.046875 0.058594,-0.22265625 L 3.0343447,-3.4209697 h 1.8867187 c 0.9609375,0 1.1484375,0.7265625 1.1484375,1.1601563 0,0.984375 -0.890625,1.95703123 -2.0625,1.95703123 z m 0,0"
             style="fill:#000000;fill-opacity:1;fill-rule:nonzero;stroke:none"
             aria-label="B"
             transform="matrix(1.3333333,0,0,1.3333333,216.43468,154.44801)"
             clip-path="url(#clipPath45)"
             id="path106" />
          <g
             aria-label="mg"
             transform="matrix(1.3333333,0,0,1.3333333,221.98668,230.13468)"
             clip-path="url(#clipPath50)"
             id="g112">
            <path
               d="m 0.88011076,-0.58733839 c -0.0351563,0.15234375 -0.09375,0.375 -0.09375,0.421875 0,0.1875 0.140625,0.26953125 0.29296874,0.26953125 0.1171875,0 0.2929688,-0.0703125 0.3632813,-0.26953125 0.011719,-0.0234375 0.1289062,-0.4921875 0.1875,-0.73828125 L 1.852767,-1.8060884 c 0.058594,-0.2226562 0.1171875,-0.4335937 0.1757813,-0.6679687 0.035156,-0.1640625 0.1171875,-0.4570313 0.1289062,-0.4921875 0.140625,-0.3164063 0.6679688,-1.21875 1.6171875,-1.21875 0.4453125,0 0.5390625,0.3632812 0.5390625,0.6914062 0,0.2578125 -0.070312,0.5390625 -0.1523437,0.8320313 l -0.2695313,1.1601562 -0.1992187,0.75000001 c -0.046875,0.19921875 -0.140625,0.5390625 -0.140625,0.5859375 0,0.1875 0.140625,0.26953125 0.2929687,0.26953125 0.3046875,0 0.375,-0.24609375 0.4453125,-0.5625 0.140625,-0.56249996 0.515625,-2.01562496 0.5976563,-2.40234376 0.035156,-0.1289062 0.5625,-1.3242187 1.6523437,-1.3242187 0.421875,0 0.5390625,0.3398437 0.5390625,0.6914062 0,0.5742188 -0.421875,1.7109375 -0.6210937,2.2382813 -0.09375,0.234375 -0.1289063,0.35156246 -0.1289063,0.55078121 0,0.46875 0.3515625,0.80859375 0.8085938,0.80859375 0.9375,0 1.3125,-1.45312496 1.3125,-1.53515626 0,-0.09375 -0.09375,-0.09375 -0.1171875,-0.09375 -0.1054688,0 -0.1054688,0.023437 -0.1523438,0.1757813 -0.1523437,0.52734371 -0.46875,1.24218746 -1.0195312,1.24218746 -0.1640625,0 -0.234375,-0.10546875 -0.234375,-0.328125 0,-0.2578125 0.082031,-0.4921875 0.1757812,-0.71484376 0.1875,-0.515625 0.609375,-1.6171875 0.609375,-2.1914062 0,-0.6445313 -0.3984375,-1.0664063 -1.1484375,-1.0664063 -0.75,0 -1.2539062,0.4453125 -1.6171875,0.9726563 -0.011719,-0.1289063 -0.046875,-0.46875 -0.328125,-0.7148438 -0.2460937,-0.1992187 -0.5625,-0.2578125 -0.8085937,-0.2578125 -0.9023438,0 -1.3828125,0.6445313 -1.5585938,0.8671875 -0.046875,-0.5625 -0.46875,-0.8671875 -0.9140625,-0.8671875 -0.45703124,0 -0.64453124,0.3867188 -0.73828124,0.5742188 -0.17578125,0.3398437 -0.3046875,0.9375 -0.3046875,0.9609375 0,0.1054687 0.09375,0.1054687 0.1171875,0.1054687 0.09375,0 0.10546875,-0.011719 0.1640625,-0.234375 0.17578125,-0.703125 0.375,-1.1835937 0.72656254,-1.1835937 0.1640625,0 0.3164062,0.082031 0.3164062,0.4570312 0,0.2109375 -0.035156,0.3164063 -0.1640625,0.8320313 z m 0,0"
               style="fill:#000000;fill-opacity:1;fill-rule:nonzero;stroke:none"
               id="path111" />
            <path
               d="m 14.031478,-3.6342134 c 0.03516,-0.1640625 0.03516,-0.2226562 0.03516,-0.2578125 0,-0.328125 -0.257812,-0.4453125 -0.46875,-0.4453125 -0.199219,0 -0.375,0.09375 -0.503906,0.2460938 -0.140625,-0.1523438 -0.46875,-0.4101563 -1.054688,-0.4101563 -1.769531,0 -2.8007808,1.5703125 -2.8007808,2.8710938 0,1.18359371 0.8789058,1.62890621 1.7343748,1.62890621 0.527344,0 0.925781,-0.19921875 1.101563,-0.3046875 -0.05859,0.24609375 -0.117188,0.4921875 -0.1875,0.73828125 -0.07031,0.29296875 -0.140625,0.59765624 -0.492188,0.86718754 -0.421875,0.3515625 -0.75,0.3515625 -1.019531,0.3515625 -0.234375,0 -0.4101563,0 -0.6679688,-0.035156 0.28125,-0.2109375 0.3046878,-0.5390625 0.3046878,-0.5859375 0,-0.21093749 -0.1640628,-0.45703124 -0.5039066,-0.45703124 -0.328125,0 -0.703125,0.28125 -0.703125,0.73828124 0,0.65625 0.8789063,0.703125 1.5820316,0.703125 0.902343,0 2.273437,-0.2109375 2.578125,-1.40624999 z m -1.746094,2.5078125 c -0.04687,0.14062501 -0.04687,0.17578126 -0.164062,0.29296876 -0.527344,0.46875 -0.996094,0.46875 -1.078125,0.46875 -0.398438,0 -0.679688,-0.2109375 -0.679688,-0.73828126 0,-0.4804687 0.328125,-1.6757812 0.480469,-2.0507812 0.339844,-0.8554688 0.914062,-0.9960938 1.207031,-0.9960938 0.621094,0 0.84375,0.4921875 0.84375,0.5625 0,0.023437 0,0.035156 -0.03516,0.1523438 z m 0,0"
               style="fill:#000000;fill-opacity:1;fill-rule:nonzero;stroke:none"
               id="path112" />
          </g>
          <path
             d="m 231.34375,68.859375 h 1.14063 c 0.26562,0 0.40625,0 0.40625,-0.265625 0,-0.140625 -0.14063,-0.140625 -0.35938,-0.140625 h -1.10937 l 0.28125,-1.515625 c 0.0469,-0.28125 0.23437,-1.21875 0.3125,-1.390625 0.125,-0.25 0.34375,-0.453125 0.625,-0.453125 0.0625,0 0.40625,0 0.65625,0.25 -0.57813,0.04687 -0.71875,0.515625 -0.71875,0.71875 0,0.296875 0.23437,0.453125 0.48437,0.453125 0.35938,0 0.73438,-0.28125 0.73438,-0.796875 0,-0.609375 -0.60938,-0.90625 -1.15625,-0.90625 -0.45313,0 -1.28125,0.234375 -1.6875,1.546875 -0.0781,0.28125 -0.10937,0.421875 -0.4375,2.09375 h -0.90625 c -0.26563,0 -0.40625,0 -0.40625,0.25 0,0.15625 0.125,0.15625 0.375,0.15625 h 0.875 l -1,5.25 c -0.23438,1.28125 -0.45313,2.5 -1.15625,2.5 -0.0469,0 -0.375,0 -0.625,-0.25 0.60937,-0.03125 0.71875,-0.515625 0.71875,-0.71875 0,-0.296875 -0.23438,-0.453125 -0.48438,-0.453125 -0.34375,0 -0.73437,0.28125 -0.73437,0.796875 0,0.59375 0.57812,0.90625 1.125,0.90625 0.73437,0 1.26562,-0.78125 1.5,-1.28125 0.4375,-0.84375 0.73437,-2.453125 0.75,-2.546875 z m 0,0"
             style="fill:#000000;fill-opacity:1;fill-rule:nonzero;stroke:none;stroke-width:1.33333"
             id="path121"
             clip-path="url(#clipPath473)" />
          <path
             d="m 236.14453,73.289063 h 1.6875 c 1.5625,0 2.89063,-1.015625 2.89063,-2.03125 0,-0.78125 -0.76563,-1.4375 -2.03125,-1.4375 h -3.25 c -0.1875,0 -0.29688,0 -0.29688,0.203125 0,0.125 0.0937,0.125 0.29688,0.125 0.15625,0 0.1875,0 0.35937,0.01563 0.1875,0.01563 0.20313,0.04687 0.20313,0.140625 0,0.01563 0,0.0625 -0.0312,0.203125 l -1.23438,4.890625 c -0.0937,0.359375 -0.0937,0.4375 -0.82812,0.4375 -0.17188,0 -0.28126,0 -0.28126,0.203125 0,0 0,0.125 0.15626,0.125 0.26562,0 0.9375,-0.03125 1.20312,-0.03125 0.15625,0 0.48438,0 0.64062,0 0.1875,0.01563 0.42188,0.03125 0.59376,0.03125 0.0625,0 0.20312,0 0.20312,-0.203125 0,-0.125 -0.10937,-0.125 -0.29688,-0.125 -0.0156,0 -0.1875,0 -0.35937,-0.03125 -0.21875,-0.01563 -0.21875,-0.04687 -0.21875,-0.140625 0,0 0,-0.0625 0.0469,-0.203125 z m 0.67188,-2.828125 c 0.0625,-0.28125 0.0781,-0.3125 0.46875,-0.3125 h 1.09375 c 0.85937,0 1.40625,0.265625 1.40625,0.921875 0,0.28125 -0.125,1.015625 -0.57813,1.4375 -0.34375,0.296875 -0.875,0.484375 -1.54687,0.484375 h -1.48438 z m 0,0"
             style="fill:#000000;fill-opacity:1;fill-rule:nonzero;stroke:none;stroke-width:1.33333"
             id="path122"
             clip-path="url(#clipPath472)" />
          <g
             aria-label="τ&#10;P"
             transform="matrix(1.3333333,0,0,1.3333333,247.708,101.83734)"
             clip-path="url(#clipPath54)"
             id="g124">
            <path
               d="m 2.9289589,-3.715898 h 1.6757813 c 0.1289062,0 0.4804687,0 0.4804687,-0.3398437 0,-0.234375 -0.1992187,-0.234375 -0.3984375,-0.234375 H 1.8977089 c -0.1992187,0 -0.5859375,0 -1.01953121,0.46875 -0.328125,0.3515625 -0.609375,0.8320312 -0.609375,0.890625 0,0.011719 0,0.1054687 0.1171875,0.1054687 0.0820313,0 0.10546875,-0.046875 0.1640625,-0.1289062 C 1.0305214,-3.715898 1.6047402,-3.715898 1.8156777,-3.715898 h 0.8203125 l -0.9726563,3.19921877 c -0.035156,0.1171875 -0.1054687,0.328125 -0.1054687,0.36328125 0,0.1171875 0.070312,0.26953125 0.2929687,0.26953125 0.328125,0 0.375,-0.28125 0.4101563,-0.421875 z m 0,0"
               style="fill:#000000;fill-opacity:1;fill-rule:nonzero;stroke:none"
               id="path123" />
            <path
               d="m 6.734623,-0.66023391 h 1.265625 c 1.171875,0 2.167969,-0.76171879 2.167969,-1.52343749 0,-0.5859375 -0.574219,-1.078125 -1.5234378,-1.078125 h -2.4375 c -0.140625,0 -0.2226562,0 -0.2226562,0.1523437 0,0.09375 0.070312,0.09375 0.2226562,0.09375 0.1171875,0 0.140625,0 0.2695313,0.011719 0.140625,0.011719 0.1523437,0.035156 0.1523437,0.1054687 0,0.011719 0,0.046875 -0.023437,0.1523438 L 5.6799355,0.92179734 C 5.609623,1.1913286 5.609623,1.2499223 5.0588417,1.2499223 c -0.1289062,0 -0.2109375,0 -0.2109375,0.1523438 0,0 0,0.09375 0.1171875,0.09375 0.1992188,0 0.703125,-0.023437 0.9023438,-0.023437 0.1171875,0 0.3632812,0 0.4804687,0 0.140625,0.011719 0.3164063,0.023437 0.4453125,0.023437 0.046875,0 0.1523438,0 0.1523438,-0.1523438 0,-0.09375 -0.082031,-0.09375 -0.2226563,-0.09375 -0.011719,0 -0.140625,0 -0.2695312,-0.023437 -0.1640625,-0.011719 -0.1640625,-0.035156 -0.1640625,-0.1054687 0,0 0,-0.046875 0.035156,-0.15234376 z M 7.2385292,-2.7813277 c 0.046875,-0.2109375 0.058594,-0.234375 0.3515625,-0.234375 h 0.8203125 c 0.6445313,0 1.0546875,0.1992188 1.0546875,0.6914063 0,0.2109375 -0.09375,0.7617187 -0.4335937,1.078125 -0.2578125,0.2226562 -0.65625,0.36328124 -1.1601563,0.36328124 H 6.7580605 Z m 0,0"
               style="fill:#000000;fill-opacity:1;fill-rule:nonzero;stroke:none"
               id="path124" />
          </g>
          <path
             style="fill:#f9f9f9;stroke:#000000;stroke-width:0.429;stroke-dasharray:1.287, 0.429;stroke-dashoffset:0;stroke-opacity:1;marker-start:url(#ArrowWideHeavy);marker-end:url(#marker84)"
             d="m 199.20963,140.9122 72.71872,-36.1345"
             id="path53"
             sodipodi:nodetypes="cc" />
          <path
             style="fill:#f9f9f9;stroke:#000000;stroke-width:0.429;stroke-dasharray:1.287, 0.429;stroke-dashoffset:0;stroke-opacity:1"
             d="m 195.29101,135.51115 20.59552,36.7913"
             id="path85"
             sodipodi:nodetypes="cc" />
        </g>
      </g>
    </g>
  </g>
</svg>
